<svg xmlns="http://www.w3.org/2000/svg" viewBox="0 0 1200 760" role="img" aria-labelledby="title desc">
  <title id="title">Inbox To Interview hero visual</title>
  <desc id="desc">Project-specific hero visual using dense editorial dashboard and asymmetric editorial grid.</desc>
  <rect width="1200" height="760" fill="#F4F6F4"/>
  <path d="M0 580C220 420 370 380 560 418c160 32 256 8 382-104 76-68 156-102 258-104v550H0Z" fill="#D7E0E4"/>
  <circle cx="900" cy="180" r="180" fill="#1D5C63" opacity="0.18"/>
  <rect x="92" y="92" width="410" height="300" rx="38" fill="#101820"/>
  <path d="M164 280c58-96 126-144 204-144-28 42-38 86-30 132 8 43 30 79 66 108-96 0-176-32-240-96Z" transform="translate(68 44) scale(.78)" fill="#1D5C63"/>
  <rect x="570" y="128" width="520" height="72" rx="36" fill="#101820" opacity="0.92"/>
  <rect x="570" y="236" width="370" height="42" rx="21" fill="#C78F2E" opacity="0.78"/>
  <rect x="570" y="312" width="462" height="42" rx="21" fill="#687782" opacity="0.32"/>
  <rect x="94" y="484" width="1008" height="170" rx="34" fill="#F4F6F4" opacity="0.88"/>
  <text x="110" y="560" fill="#687782" font-family="Arial, sans-serif" font-size="24">string</text><text x="390" y="560" fill="#687782" font-family="Arial, sans-serif" font-size="24">null</text><text x="670" y="560" fill="#687782" font-family="Arial, sans-serif" font-size="24">input</text><text x="110" y="618" fill="#687782" font-family="Arial, sans-serif" font-size="24">await</text><text x="390" y="618" fill="#687782" font-family="Arial, sans-serif" font-size="24">row</text><text x="670" y="618" fill="#687782" font-family="Arial, sans-serif" font-size="24">error</text>
</svg>
